<mxfile host="app.diagrams.net" agent="Mozilla/5.0 (Windows NT 10.0; Win64; x64) AppleWebKit/537.36 (KHTML, like Gecko) Chrome/141.0.0.0 Safari/537.36 Edg/141.0.0.0" version="28.2.5">
  <diagram name="Page-1" id="XkXbQeuMfDBbyy4YrDp9">
    <mxGraphModel dx="1418" dy="756" grid="1" gridSize="10" guides="1" tooltips="1" connect="1" arrows="1" fold="1" page="1" pageScale="1" pageWidth="850" pageHeight="1100" math="0" shadow="0">
      <root>
        <mxCell id="0" />
        <mxCell id="1" parent="0" />
        <mxCell id="O5wGwF4iqjPsfDwwZtzJ-66" value="" style="rounded=0;whiteSpace=wrap;html=1;strokeColor=none;" vertex="1" parent="1">
          <mxGeometry x="320" y="60" width="680" height="560" as="geometry" />
        </mxCell>
        <mxCell id="O5wGwF4iqjPsfDwwZtzJ-15" style="edgeStyle=orthogonalEdgeStyle;rounded=0;orthogonalLoop=1;jettySize=auto;html=1;exitX=0.5;exitY=1;exitDx=0;exitDy=0;entryX=0.5;entryY=0;entryDx=0;entryDy=0;strokeWidth=2;" edge="1" parent="1" source="O5wGwF4iqjPsfDwwZtzJ-13" target="O5wGwF4iqjPsfDwwZtzJ-14">
          <mxGeometry relative="1" as="geometry" />
        </mxCell>
        <mxCell id="O5wGwF4iqjPsfDwwZtzJ-13" value="&lt;b&gt;&lt;font style=&quot;font-size: 16px;&quot;&gt;User Browser&lt;/font&gt;&lt;/b&gt;&lt;div&gt;(React Web App Access)&lt;/div&gt;" style="rounded=1;whiteSpace=wrap;html=1;strokeColor=#66B2FF;strokeWidth=2;" vertex="1" parent="1">
          <mxGeometry x="480" y="80" width="160" height="60" as="geometry" />
        </mxCell>
        <mxCell id="O5wGwF4iqjPsfDwwZtzJ-22" style="edgeStyle=orthogonalEdgeStyle;rounded=0;orthogonalLoop=1;jettySize=auto;html=1;exitX=0.5;exitY=1;exitDx=0;exitDy=0;entryX=0.5;entryY=0;entryDx=0;entryDy=0;curved=1;strokeWidth=2;" edge="1" parent="1" source="O5wGwF4iqjPsfDwwZtzJ-17" target="O5wGwF4iqjPsfDwwZtzJ-18">
          <mxGeometry relative="1" as="geometry" />
        </mxCell>
        <mxCell id="O5wGwF4iqjPsfDwwZtzJ-29" value="Static Assets&lt;div&gt;Cache&lt;/div&gt;" style="edgeLabel;html=1;align=left;verticalAlign=middle;resizable=0;points=[];" vertex="1" connectable="0" parent="O5wGwF4iqjPsfDwwZtzJ-22">
          <mxGeometry x="0.0757" relative="1" as="geometry">
            <mxPoint x="-31" y="10" as="offset" />
          </mxGeometry>
        </mxCell>
        <mxCell id="O5wGwF4iqjPsfDwwZtzJ-26" style="edgeStyle=orthogonalEdgeStyle;rounded=0;orthogonalLoop=1;jettySize=auto;html=1;exitX=0.5;exitY=1;exitDx=0;exitDy=0;entryX=0.5;entryY=0;entryDx=0;entryDy=0;curved=1;strokeWidth=2;" edge="1" parent="1" source="O5wGwF4iqjPsfDwwZtzJ-17" target="O5wGwF4iqjPsfDwwZtzJ-23">
          <mxGeometry relative="1" as="geometry" />
        </mxCell>
        <mxCell id="O5wGwF4iqjPsfDwwZtzJ-30" value="Dynamic API&lt;div&gt;Calls&lt;/div&gt;" style="edgeLabel;html=1;align=left;verticalAlign=middle;resizable=0;points=[];" vertex="1" connectable="0" parent="O5wGwF4iqjPsfDwwZtzJ-26">
          <mxGeometry x="-0.1051" y="-1" relative="1" as="geometry">
            <mxPoint x="-24" y="9" as="offset" />
          </mxGeometry>
        </mxCell>
        <mxCell id="O5wGwF4iqjPsfDwwZtzJ-27" value="" style="group" vertex="1" connectable="0" parent="1">
          <mxGeometry x="600" y="320" width="140" height="130" as="geometry" />
        </mxCell>
        <mxCell id="O5wGwF4iqjPsfDwwZtzJ-23" value="" style="rounded=1;whiteSpace=wrap;html=1;strokeColor=#66B2FF;strokeWidth=2;align=right;" vertex="1" parent="O5wGwF4iqjPsfDwwZtzJ-27">
          <mxGeometry width="130" height="130" as="geometry" />
        </mxCell>
        <mxCell id="O5wGwF4iqjPsfDwwZtzJ-4" value="" style="sketch=0;points=[[0,0,0],[0.25,0,0],[0.5,0,0],[0.75,0,0],[1,0,0],[0,1,0],[0.25,1,0],[0.5,1,0],[0.75,1,0],[1,1,0],[0,0.25,0],[0,0.5,0],[0,0.75,0],[1,0.25,0],[1,0.5,0],[1,0.75,0]];outlineConnect=0;fontColor=#232F3E;fillColor=light-dark(#f58536, #ff81d9);strokeColor=#ffffff;dashed=0;verticalLabelPosition=bottom;verticalAlign=top;align=center;html=1;fontSize=12;fontStyle=0;aspect=fixed;shape=mxgraph.aws4.resourceIcon;resIcon=mxgraph.aws4.api_gateway;" vertex="1" parent="O5wGwF4iqjPsfDwwZtzJ-27">
          <mxGeometry x="40" y="10" width="50" height="50" as="geometry" />
        </mxCell>
        <mxCell id="O5wGwF4iqjPsfDwwZtzJ-24" value="&lt;b style=&quot;&quot;&gt;&lt;font style=&quot;font-size: 16px;&quot;&gt;Amazon API&lt;/font&gt;&lt;/b&gt;&lt;div&gt;&lt;b style=&quot;&quot;&gt;&lt;font style=&quot;font-size: 16px;&quot;&gt;Gateway&lt;/font&gt;&lt;/b&gt;&lt;/div&gt;" style="text;html=1;align=left;verticalAlign=middle;whiteSpace=wrap;rounded=0;" vertex="1" parent="O5wGwF4iqjPsfDwwZtzJ-27">
          <mxGeometry x="20" y="60" width="110" height="40" as="geometry" />
        </mxCell>
        <mxCell id="O5wGwF4iqjPsfDwwZtzJ-25" value="API endpoint routing" style="text;html=1;align=left;verticalAlign=middle;whiteSpace=wrap;rounded=0;" vertex="1" parent="O5wGwF4iqjPsfDwwZtzJ-27">
          <mxGeometry x="10" y="100" width="130" height="30" as="geometry" />
        </mxCell>
        <mxCell id="O5wGwF4iqjPsfDwwZtzJ-28" value="" style="group" vertex="1" connectable="0" parent="1">
          <mxGeometry x="350" y="320" width="170" height="130" as="geometry" />
        </mxCell>
        <mxCell id="O5wGwF4iqjPsfDwwZtzJ-18" value="" style="rounded=1;whiteSpace=wrap;html=1;strokeColor=#66B2FF;strokeWidth=2;align=right;" vertex="1" parent="O5wGwF4iqjPsfDwwZtzJ-28">
          <mxGeometry width="170" height="130" as="geometry" />
        </mxCell>
        <mxCell id="O5wGwF4iqjPsfDwwZtzJ-3" value="" style="sketch=0;outlineConnect=0;fontColor=#232F3E;gradientColor=none;strokeColor=#ffffff;fillColor=light-dark(#f58536, #bdc7d4);dashed=0;verticalLabelPosition=middle;verticalAlign=bottom;align=center;html=1;whiteSpace=wrap;fontSize=10;fontStyle=1;spacing=3;shape=mxgraph.aws4.productIcon;prIcon=mxgraph.aws4.s3;" vertex="1" parent="O5wGwF4iqjPsfDwwZtzJ-28">
          <mxGeometry x="10" y="10" width="50" height="50" as="geometry" />
        </mxCell>
        <mxCell id="O5wGwF4iqjPsfDwwZtzJ-19" value="&lt;b style=&quot;&quot;&gt;&lt;font style=&quot;font-size: 16px;&quot;&gt;Amazon S3&lt;/font&gt;&lt;/b&gt;&lt;div&gt;&lt;b style=&quot;&quot;&gt;&lt;font style=&quot;font-size: 16px;&quot;&gt;(Origin)&lt;/font&gt;&lt;/b&gt;&lt;/div&gt;" style="text;html=1;align=left;verticalAlign=middle;whiteSpace=wrap;rounded=0;" vertex="1" parent="O5wGwF4iqjPsfDwwZtzJ-28">
          <mxGeometry x="70" y="10" width="100" height="40" as="geometry" />
        </mxCell>
        <mxCell id="O5wGwF4iqjPsfDwwZtzJ-20" value="React build files:&lt;div&gt;Index.html, JS, CSS, images, fonts, etc.&lt;/div&gt;" style="text;html=1;align=left;verticalAlign=middle;whiteSpace=wrap;rounded=0;" vertex="1" parent="O5wGwF4iqjPsfDwwZtzJ-28">
          <mxGeometry x="70" y="50" width="100" height="80" as="geometry" />
        </mxCell>
        <mxCell id="O5wGwF4iqjPsfDwwZtzJ-38" style="edgeStyle=orthogonalEdgeStyle;rounded=0;orthogonalLoop=1;jettySize=auto;html=1;entryX=0.5;entryY=0;entryDx=0;entryDy=0;strokeWidth=2;curved=1;" edge="1" parent="1" source="O5wGwF4iqjPsfDwwZtzJ-25" target="O5wGwF4iqjPsfDwwZtzJ-32">
          <mxGeometry relative="1" as="geometry" />
        </mxCell>
        <mxCell id="O5wGwF4iqjPsfDwwZtzJ-39" style="edgeStyle=orthogonalEdgeStyle;rounded=0;orthogonalLoop=1;jettySize=auto;html=1;entryX=0.5;entryY=0;entryDx=0;entryDy=0;strokeWidth=2;curved=1;" edge="1" parent="1" source="O5wGwF4iqjPsfDwwZtzJ-18" target="O5wGwF4iqjPsfDwwZtzJ-32">
          <mxGeometry relative="1" as="geometry" />
        </mxCell>
        <mxCell id="O5wGwF4iqjPsfDwwZtzJ-40" value="" style="group" vertex="1" connectable="0" parent="1">
          <mxGeometry x="450" y="510" width="220" height="80" as="geometry" />
        </mxCell>
        <mxCell id="O5wGwF4iqjPsfDwwZtzJ-32" value="" style="rounded=1;whiteSpace=wrap;html=1;strokeColor=#66B2FF;strokeWidth=2;align=right;" vertex="1" parent="O5wGwF4iqjPsfDwwZtzJ-40">
          <mxGeometry width="220" height="80" as="geometry" />
        </mxCell>
        <mxCell id="O5wGwF4iqjPsfDwwZtzJ-34" value="&lt;span style=&quot;font-size: 16px;&quot;&gt;&lt;b&gt;Application Load&lt;/b&gt;&lt;/span&gt;&lt;div&gt;&lt;span style=&quot;font-size: 16px;&quot;&gt;&lt;b&gt;Balancer (ALB)&lt;/b&gt;&lt;/span&gt;&lt;/div&gt;" style="text;html=1;align=left;verticalAlign=middle;whiteSpace=wrap;rounded=0;" vertex="1" parent="O5wGwF4iqjPsfDwwZtzJ-40">
          <mxGeometry x="70" y="10" width="140" height="40" as="geometry" />
        </mxCell>
        <mxCell id="O5wGwF4iqjPsfDwwZtzJ-35" value="Business logic &amp;amp; API" style="text;html=1;align=left;verticalAlign=middle;whiteSpace=wrap;rounded=0;" vertex="1" parent="O5wGwF4iqjPsfDwwZtzJ-40">
          <mxGeometry x="70" y="50" width="130" height="30" as="geometry" />
        </mxCell>
        <mxCell id="O5wGwF4iqjPsfDwwZtzJ-5" value="" style="sketch=0;outlineConnect=0;fontColor=#232F3E;gradientColor=none;fillColor=light-dark(#f58536, #b17dff);strokeColor=none;dashed=0;verticalLabelPosition=bottom;verticalAlign=top;align=center;html=1;fontSize=12;fontStyle=0;aspect=fixed;pointerEvents=1;shape=mxgraph.aws4.application_load_balancer;" vertex="1" parent="O5wGwF4iqjPsfDwwZtzJ-40">
          <mxGeometry x="10" y="10" width="50" height="50" as="geometry" />
        </mxCell>
        <mxCell id="O5wGwF4iqjPsfDwwZtzJ-46" value="" style="group" vertex="1" connectable="0" parent="1">
          <mxGeometry x="770" y="180" width="210" height="70" as="geometry" />
        </mxCell>
        <mxCell id="O5wGwF4iqjPsfDwwZtzJ-42" value="" style="rounded=1;whiteSpace=wrap;html=1;strokeColor=#999999;strokeWidth=2;align=right;" vertex="1" parent="O5wGwF4iqjPsfDwwZtzJ-46">
          <mxGeometry width="200" height="70" as="geometry" />
        </mxCell>
        <mxCell id="O5wGwF4iqjPsfDwwZtzJ-43" value="&lt;span style=&quot;font-size: 16px;&quot;&gt;&lt;b&gt;AWS Route 53&lt;/b&gt;&lt;/span&gt;" style="text;html=1;align=left;verticalAlign=middle;whiteSpace=wrap;rounded=0;" vertex="1" parent="O5wGwF4iqjPsfDwwZtzJ-46">
          <mxGeometry x="70" y="8" width="140" height="40" as="geometry" />
        </mxCell>
        <mxCell id="O5wGwF4iqjPsfDwwZtzJ-44" value="(manages domain)" style="text;html=1;align=left;verticalAlign=middle;whiteSpace=wrap;rounded=0;" vertex="1" parent="O5wGwF4iqjPsfDwwZtzJ-46">
          <mxGeometry x="70" y="30" width="130" height="30" as="geometry" />
        </mxCell>
        <mxCell id="O5wGwF4iqjPsfDwwZtzJ-6" value="" style="sketch=0;points=[[0,0,0],[0.25,0,0],[0.5,0,0],[0.75,0,0],[1,0,0],[0,1,0],[0.25,1,0],[0.5,1,0],[0.75,1,0],[1,1,0],[0,0.25,0],[0,0.5,0],[0,0.75,0],[1,0.25,0],[1,0.5,0],[1,0.75,0]];outlineConnect=0;fontColor=#232F3E;fillColor=light-dark(#f58536, #b17dff);strokeColor=#ffffff;dashed=0;verticalLabelPosition=bottom;verticalAlign=top;align=center;html=1;fontSize=12;fontStyle=0;aspect=fixed;shape=mxgraph.aws4.resourceIcon;resIcon=mxgraph.aws4.route_53;" vertex="1" parent="O5wGwF4iqjPsfDwwZtzJ-46">
          <mxGeometry x="10" y="10" width="50" height="50" as="geometry" />
        </mxCell>
        <mxCell id="O5wGwF4iqjPsfDwwZtzJ-62" value="" style="group" vertex="1" connectable="0" parent="1">
          <mxGeometry x="770" y="350" width="210" height="70" as="geometry" />
        </mxCell>
        <mxCell id="O5wGwF4iqjPsfDwwZtzJ-48" value="" style="rounded=1;whiteSpace=wrap;html=1;strokeColor=#999999;strokeWidth=2;align=right;" vertex="1" parent="O5wGwF4iqjPsfDwwZtzJ-62">
          <mxGeometry width="200" height="70" as="geometry" />
        </mxCell>
        <mxCell id="O5wGwF4iqjPsfDwwZtzJ-49" value="&lt;span style=&quot;font-size: 16px;&quot;&gt;&lt;b&gt;AWS WAF&lt;/b&gt;&lt;/span&gt;" style="text;html=1;align=left;verticalAlign=middle;whiteSpace=wrap;rounded=0;" vertex="1" parent="O5wGwF4iqjPsfDwwZtzJ-62">
          <mxGeometry x="70" y="8" width="140" height="40" as="geometry" />
        </mxCell>
        <mxCell id="O5wGwF4iqjPsfDwwZtzJ-50" value="(protects CloudFront)" style="text;html=1;align=left;verticalAlign=middle;whiteSpace=wrap;rounded=0;" vertex="1" parent="O5wGwF4iqjPsfDwwZtzJ-62">
          <mxGeometry x="70" y="30" width="130" height="30" as="geometry" />
        </mxCell>
        <mxCell id="O5wGwF4iqjPsfDwwZtzJ-11" value="" style="sketch=0;points=[[0,0,0],[0.25,0,0],[0.5,0,0],[0.75,0,0],[1,0,0],[0,1,0],[0.25,1,0],[0.5,1,0],[0.75,1,0],[1,1,0],[0,0.25,0],[0,0.5,0],[0,0.75,0],[1,0.25,0],[1,0.5,0],[1,0.75,0]];outlineConnect=0;fontColor=#232F3E;fillColor=light-dark(#f58536, #ff7f93);strokeColor=#ffffff;dashed=0;verticalLabelPosition=bottom;verticalAlign=top;align=center;html=1;fontSize=12;fontStyle=0;aspect=fixed;shape=mxgraph.aws4.resourceIcon;resIcon=mxgraph.aws4.waf;" vertex="1" parent="O5wGwF4iqjPsfDwwZtzJ-62">
          <mxGeometry x="10" y="11" width="48" height="48" as="geometry" />
        </mxCell>
        <mxCell id="O5wGwF4iqjPsfDwwZtzJ-63" value="" style="group" vertex="1" connectable="0" parent="1">
          <mxGeometry x="770" y="260" width="210" height="80" as="geometry" />
        </mxCell>
        <mxCell id="O5wGwF4iqjPsfDwwZtzJ-53" value="" style="rounded=1;whiteSpace=wrap;html=1;strokeColor=#999999;strokeWidth=2;align=right;" vertex="1" parent="O5wGwF4iqjPsfDwwZtzJ-63">
          <mxGeometry width="200" height="80" as="geometry" />
        </mxCell>
        <mxCell id="O5wGwF4iqjPsfDwwZtzJ-54" value="&lt;span style=&quot;font-size: 16px;&quot;&gt;&lt;b&gt;AWS Certificate&lt;/b&gt;&lt;/span&gt;&lt;div&gt;&lt;span style=&quot;font-size: 16px;&quot;&gt;&lt;b&gt;Manager&lt;/b&gt;&lt;/span&gt;&lt;/div&gt;" style="text;html=1;align=left;verticalAlign=middle;whiteSpace=wrap;rounded=0;" vertex="1" parent="O5wGwF4iqjPsfDwwZtzJ-63">
          <mxGeometry x="70" y="8" width="140" height="40" as="geometry" />
        </mxCell>
        <mxCell id="O5wGwF4iqjPsfDwwZtzJ-55" value="(provides HTTPS/SSL)" style="text;html=1;align=left;verticalAlign=middle;whiteSpace=wrap;rounded=0;" vertex="1" parent="O5wGwF4iqjPsfDwwZtzJ-63">
          <mxGeometry x="70" y="48" width="130" height="30" as="geometry" />
        </mxCell>
        <mxCell id="O5wGwF4iqjPsfDwwZtzJ-9" value="" style="sketch=0;outlineConnect=0;fontColor=#232F3E;gradientColor=none;fillColor=light-dark(#f58536, #61820b);strokeColor=none;dashed=0;verticalLabelPosition=bottom;verticalAlign=top;align=center;html=1;fontSize=12;fontStyle=0;aspect=fixed;pointerEvents=1;shape=mxgraph.aws4.certificate_manager;" vertex="1" parent="O5wGwF4iqjPsfDwwZtzJ-63">
          <mxGeometry x="10" y="5" width="45.38" height="60" as="geometry" />
        </mxCell>
        <mxCell id="O5wGwF4iqjPsfDwwZtzJ-64" value="" style="group" vertex="1" connectable="0" parent="1">
          <mxGeometry x="460" y="180" width="200" height="80" as="geometry" />
        </mxCell>
        <mxCell id="O5wGwF4iqjPsfDwwZtzJ-14" value="" style="rounded=1;whiteSpace=wrap;html=1;strokeColor=#66B2FF;strokeWidth=2;align=right;" vertex="1" parent="O5wGwF4iqjPsfDwwZtzJ-64">
          <mxGeometry width="200" height="80" as="geometry" />
        </mxCell>
        <mxCell id="O5wGwF4iqjPsfDwwZtzJ-16" value="&lt;b style=&quot;&quot;&gt;&lt;font style=&quot;font-size: 16px;&quot;&gt;Amazon Cloud&lt;/font&gt;&lt;/b&gt;&lt;div style=&quot;&quot;&gt;&lt;b&gt;&lt;font style=&quot;font-size: 16px;&quot;&gt;Front&lt;/font&gt;&lt;/b&gt;&lt;/div&gt;" style="text;html=1;align=left;verticalAlign=middle;whiteSpace=wrap;rounded=0;" vertex="1" parent="O5wGwF4iqjPsfDwwZtzJ-64">
          <mxGeometry x="80" y="10" width="120" height="40" as="geometry" />
        </mxCell>
        <mxCell id="O5wGwF4iqjPsfDwwZtzJ-1" value="" style="outlineConnect=0;dashed=0;verticalLabelPosition=bottom;verticalAlign=top;align=center;html=1;shape=mxgraph.aws3.cloudfront;fillColor=#F58536;gradientColor=none;" vertex="1" parent="O5wGwF4iqjPsfDwwZtzJ-64">
          <mxGeometry x="20" y="5" width="50" height="50" as="geometry" />
        </mxCell>
        <mxCell id="O5wGwF4iqjPsfDwwZtzJ-17" value="Global CDN + Caching Layer" style="text;html=1;align=left;verticalAlign=middle;whiteSpace=wrap;rounded=0;" vertex="1" parent="O5wGwF4iqjPsfDwwZtzJ-64">
          <mxGeometry x="20" y="50" width="160" height="30" as="geometry" />
        </mxCell>
        <mxCell id="O5wGwF4iqjPsfDwwZtzJ-73" style="edgeStyle=orthogonalEdgeStyle;rounded=0;orthogonalLoop=1;jettySize=auto;html=1;exitX=0.5;exitY=1;exitDx=0;exitDy=0;entryX=0.5;entryY=0;entryDx=0;entryDy=0;" edge="1" parent="1" source="O5wGwF4iqjPsfDwwZtzJ-67" target="O5wGwF4iqjPsfDwwZtzJ-68">
          <mxGeometry relative="1" as="geometry" />
        </mxCell>
        <mxCell id="O5wGwF4iqjPsfDwwZtzJ-67" value="&lt;span style=&quot;font-size: 16px;&quot;&gt;&lt;b&gt;React Build&lt;/b&gt;&lt;/span&gt;&lt;div&gt;&lt;font style=&quot;&quot;&gt;S3 (origine)&lt;/font&gt;&lt;/div&gt;" style="rounded=1;whiteSpace=wrap;html=1;strokeColor=#66B2FF;strokeWidth=2;" vertex="1" parent="1">
          <mxGeometry x="230" y="800" width="160" height="60" as="geometry" />
        </mxCell>
        <mxCell id="O5wGwF4iqjPsfDwwZtzJ-74" style="edgeStyle=orthogonalEdgeStyle;rounded=0;orthogonalLoop=1;jettySize=auto;html=1;exitX=0.5;exitY=1;exitDx=0;exitDy=0;entryX=0.5;entryY=0;entryDx=0;entryDy=0;" edge="1" parent="1" source="O5wGwF4iqjPsfDwwZtzJ-68" target="O5wGwF4iqjPsfDwwZtzJ-69">
          <mxGeometry relative="1" as="geometry" />
        </mxCell>
        <mxCell id="O5wGwF4iqjPsfDwwZtzJ-68" value="&lt;span style=&quot;font-size: 16px;&quot;&gt;&lt;b&gt;CloudFront (CDN)&lt;/b&gt;&lt;/span&gt;" style="rounded=1;whiteSpace=wrap;html=1;strokeColor=#66B2FF;strokeWidth=2;" vertex="1" parent="1">
          <mxGeometry x="230" y="890" width="160" height="40" as="geometry" />
        </mxCell>
        <mxCell id="O5wGwF4iqjPsfDwwZtzJ-69" value="&lt;span style=&quot;font-size: 16px;&quot;&gt;&lt;b&gt;Route53 (Domain)&lt;/b&gt;&lt;/span&gt;" style="rounded=1;whiteSpace=wrap;html=1;strokeColor=#66B2FF;strokeWidth=2;" vertex="1" parent="1">
          <mxGeometry x="230" y="960" width="160" height="40" as="geometry" />
        </mxCell>
      </root>
    </mxGraphModel>
  </diagram>
</mxfile>
